<svg width="15163" height="3715" viewBox="0 0 15163 3715" fill="none" xmlns="http://www.w3.org/2000/svg">
<path fill-rule="evenodd" clip-rule="evenodd" d="M1857.5 3715C2883.37 3715 3715 2883.37 3715 1857.5C3715 831.631 2883.37 0 1857.5 0C831.631 0 0 831.631 0 1857.5C0 2883.37 831.631 3715 1857.5 3715ZM1321.5 3382.5C1321.5 3382.5 1479.3 3444.5 1582 3461.5C1699.87 3481.02 1892 3469.5 1892 3469.5C1892 3469.5 1890.5 3415.5 1900 3379.5C1906.91 3353.33 1919.23 3347.4 1933 3348.5C1945.5 3349.5 1951.93 3353.91 1954.5 3365C1961 3393 1966 3461.5 1966 3461.5C1966 3461.5 2197.34 3440.4 2336.5 3400C2473.98 3360.09 2670.5 3258 2670.5 3258C2670.5 3258 2659.06 3159.99 2647 3098C2641.89 3071.73 2635.67 3049.56 2629.58 3027.84C2621.29 2998.32 2613.24 2969.61 2608.5 2932.5C2605.5 2909 2611.95 2897.13 2627 2892.5C2640 2888.5 2660.01 2896.08 2663 2914C2668.64 2947.84 2681.95 2976.18 2695.76 3005.57C2705.2 3025.68 2714.89 3046.29 2722.5 3069.5C2741.37 3127.01 2761.5 3207 2761.5 3207C2761.5 3207 2874.7 3135.58 2940.5 3081C2992.06 3038.23 3060.5 2963 3060.5 2963C3060.5 2963 2950.55 2562.42 2919 2256C2901.48 2085.8 2908.81 1951.19 2916.05 1818.45C2923.89 1674.71 2931.6 1533.17 2907.5 1351C2905.54 1336.16 2903.67 1321.81 2901.85 1307.87C2883.98 1170.56 2871.32 1073.25 2822.5 934C2820.18 927.374 2817.92 920.914 2815.71 914.606C2777.68 805.8 2755.35 741.908 2686 647.5C2612.38 547.282 2560.68 492.333 2452.5 431C2395.47 398.663 2361.75 379.554 2297.5 366.5C2231.97 353.186 2169.45 363.837 2103.62 375.053L2101 375.5C2017.46 389.728 1955.48 426.306 1888.26 465.976C1884.03 468.473 1879.78 470.983 1875.5 473.5C1795.54 520.529 1766.65 556.469 1724.27 609.184C1714.77 621.007 1704.59 633.674 1693 647.5C1621.15 733.216 1590.01 792.2 1539.99 886.922C1537.22 892.168 1534.4 897.524 1531.5 903C1459.39 1039.36 1427.09 1121.19 1383 1269C1343.78 1400.49 1331.21 1477.21 1311.5 1613C1309.85 1624.37 1308.25 1635.29 1306.7 1645.85C1291.21 1751.29 1281.08 1820.27 1283 1935C1284.09 1999.99 1290.38 2047.67 1297.17 2099.13C1301.48 2131.77 1305.99 2165.93 1309.5 2207C1314.15 2261.43 1322.5 2354.5 1322.5 2354.5C1322.5 2354.5 1343.51 2366.12 1359 2386.5C1374.49 2406.88 1383 2430.5 1383 2430.5L1434.5 2406.5C1434.5 2406.5 1419.78 2363.49 1401.5 2345C1395.03 2338.45 1387.89 2336.96 1381.13 2335.55C1374.34 2334.14 1367.94 2332.8 1363 2326.5C1358.79 2321.12 1358.91 2313.31 1360.5 2305.5C1362.98 2293.3 1369.52 2288.01 1381 2285.5C1397 2282 1412.77 2281.99 1430 2291.5C1441.52 2297.86 1447.44 2306.31 1454.4 2316.24C1457 2319.96 1459.75 2323.89 1463 2328C1486.95 2358.29 1498.55 2377.4 1513.5 2413C1523.95 2437.88 1529.97 2452.31 1534 2479C1534.59 2482.9 1535.31 2486.41 1536 2489.72C1538 2499.41 1539.66 2507.43 1536.5 2518.5C1536.32 2519.13 1536.14 2519.76 1535.97 2520.37C1533.24 2530.03 1531.17 2537.33 1522.5 2543C1513.29 2549.01 1504.96 2549.39 1494.5 2546C1483.96 2542.59 1479.8 2535.34 1474.7 2526.45C1473.69 2524.69 1472.64 2522.87 1471.5 2521C1464.83 2510.06 1462.37 2500.85 1459.39 2489.71C1458.65 2486.94 1457.88 2484.06 1457 2481C1454.28 2471.48 1452.5 2457.5 1452.5 2457.5L1409 2492C1409 2492 1417.8 2524.89 1421 2546C1425.32 2574.48 1427.67 2590.36 1428 2619C1428.06 2624.04 1428.21 2628.64 1428.35 2632.98C1428.88 2649.01 1429.28 2661.5 1424.5 2679.5C1423.9 2681.76 1423.39 2683.86 1422.91 2685.86C1420.89 2694.21 1419.33 2700.65 1413.5 2708.5C1412.69 2709.59 1411.93 2710.65 1411.2 2711.68C1407 2717.59 1403.6 2722.37 1396 2724C1386.13 2726.12 1380.04 2719.99 1373.19 2713.1C1371.68 2711.58 1370.13 2710.02 1368.5 2708.5C1362.38 2702.82 1359.54 2697.95 1355.94 2691.77C1354.89 2689.98 1353.78 2688.07 1352.5 2686C1343.52 2671.43 1338.62 2662.84 1333.5 2646.5C1329.36 2633.29 1328.13 2623.04 1326.8 2611.94C1325.97 2605.09 1325.11 2597.91 1323.5 2589.5C1318.05 2561.1 1313.97 2543.64 1304 2516.5C1302.1 2511.32 1300.45 2506.66 1298.91 2502.32C1293.23 2486.25 1289.12 2474.63 1279.5 2457.5C1277.52 2453.97 1275.86 2450.69 1274.3 2447.6C1269.64 2438.35 1265.82 2430.78 1256.5 2423C1248.58 2416.39 1241.76 2414.6 1231.5 2413.5C1220.63 2412.34 1212.25 2413.24 1203 2416.5C1201.37 2417.07 1199.91 2417.58 1198.57 2418.05C1188.75 2421.45 1185.62 2422.53 1175.5 2430C1165.82 2437.14 1163.23 2446.07 1161.16 2453.19C1160.77 2454.54 1160.4 2455.81 1160 2457C1157.05 2465.85 1157.81 2474.76 1158.49 2482.63C1158.79 2486.16 1159.07 2489.48 1159 2492.5C1158.82 2499.73 1158.98 2504.02 1159.11 2507.71C1159.26 2511.8 1159.38 2515.17 1159 2521C1158.82 2523.71 1158.7 2526.22 1158.59 2528.59C1158.1 2538.82 1157.72 2546.59 1153.5 2557.5C1152.88 2559.1 1152.32 2560.63 1151.78 2562.11C1148.62 2570.69 1146.18 2577.35 1138 2583C1137.59 2583.29 1137.18 2583.57 1136.77 2583.85C1130.24 2588.4 1124.56 2592.35 1117 2589.5C1110.88 2587.19 1108.38 2582.94 1105.24 2577.6C1104.84 2576.92 1104.43 2576.22 1104 2575.5C1098.26 2565.95 1097 2558.29 1095.39 2548.54C1094.98 2546.02 1094.54 2543.36 1094 2540.5C1092.51 2532.63 1092.21 2526.56 1091.91 2520.28C1091.66 2515.18 1091.41 2509.94 1090.5 2503.5C1090.22 2501.5 1089.96 2499.62 1089.72 2497.83C1088.28 2487.33 1087.27 2479.92 1084 2468.5C1083.63 2467.21 1083.29 2465.98 1082.95 2464.8C1080.39 2455.7 1078.63 2449.48 1073.5 2440.5C1066.63 2428.49 1059.86 2422.57 1050.48 2414.38C1048.9 2413 1047.24 2411.55 1045.5 2410C1043.31 2408.05 1041.36 2406.21 1039.53 2404.47C1033.26 2398.54 1028.28 2393.82 1019 2390C1005.99 2384.65 996.871 2385.31 983.501 2386.28C982.524 2386.35 981.525 2386.43 980.5 2386.5C963.398 2387.7 953.895 2391.08 938 2397.5C906.21 2410.35 891.322 2425.36 868 2450.5C837.426 2483.45 827.063 2508.52 811 2550.5C794.455 2593.74 790.998 2620.42 786.5 2666.5C786.338 2668.16 786.177 2669.81 786.018 2671.43C781.142 2721.19 778.099 2752.25 790.5 2802C802.31 2849.38 810.664 2879.33 844 2915C846.839 2918.04 849.448 2920.96 851.942 2923.76C863.791 2937.05 873.049 2947.44 892 2953C909.237 2958.06 920.406 2956.63 938 2953C962.467 2947.95 976.334 2940.15 994.5 2923C1016.92 2901.84 1024.73 2883.19 1031 2853C1035.69 2830.44 1036.58 2816.36 1031 2794C1028.3 2783.18 1022.12 2775.93 1016.09 2768.87C1009.15 2760.73 1002.42 2752.84 1001.5 2740C1000.48 2725.75 1000.85 2716.37 1008 2704C1018.42 2685.96 1041.44 2671.13 1062 2674.5C1083.67 2678.05 1096.39 2676.18 1113.68 2673.63C1120.72 2672.59 1128.53 2671.44 1138 2670.5C1146.94 2669.61 1154.37 2668.35 1161.4 2667.16C1174.23 2664.98 1185.71 2663.03 1202.5 2664C1222.03 2665.13 1233.71 2671.65 1247 2686C1266.11 2706.62 1266.07 2725.82 1266.01 2754.92C1266 2756.58 1266 2758.27 1266 2760C1266 2799.07 1267.46 2823.05 1269.64 2858.73C1269.91 2863.28 1270.2 2868.02 1270.5 2873C1273.12 2916.64 1275.65 2943.37 1279.38 2982.81C1279.89 2988.27 1280.43 2993.98 1281 3000C1283.84 3030.18 1285.6 3045.33 1287.48 3061.44C1289.13 3075.6 1290.87 3090.5 1293.5 3117C1293.5 3117 1308.29 3218.28 1314 3295.5C1317.31 3340.19 1321.5 3382.5 1321.5 3382.5Z" fill="black"/>
<path d="M1974 1038C1986 1022.8 2017.67 1009.67 2032 1005C2040.33 999.333 2059.8 998 2079.5 998C2102 998 2139.7 1014.35 2156 1044C2192 1109.5 2204 1153.5 2220 1230.5C2236 1307.5 2235.5 1370 2237.5 1410C2239.5 1450 2231.5 1613.5 2229.5 1655.5C2227.5 1697.5 2221.5 1812.5 2202 1867.5C2182.5 1922.5 2148 1935 2139.5 1937C2131 1939 2110 1945 2074.5 1919.5C2039 1894 2021 1842 2002 1793C1984.24 1747.19 1948 1591.5 1939 1549.5C1930 1507.5 1925 1319.5 1925 1283.5C1925 1247.5 1928 1178 1932.5 1136C1937 1094 1959 1057 1974 1038Z" fill="black"/>
<path d="M1550 1055C1550 1055 1569.5 992.5 1615 977C1660.5 961.5 1699.5 977 1729 1010C1758.5 1043 1776 1124.5 1782 1189C1788 1253.5 1790 1321 1790 1380C1790 1439 1784 1505.5 1776 1570.5C1768 1635.5 1733 1714 1715 1757.5C1697 1801 1654 1857.5 1640.5 1869.5C1627 1881.5 1587.5 1895 1550 1869.5C1520 1849.1 1512.5 1786.33 1512.5 1757.5C1531.5 1583.17 1563.58 1406.3 1543.5 1181C1539 1130.5 1543.5 1078.67 1550 1055Z" fill="black"/>
<path d="M2080.5 2445C2125 2414 2145 2376 2162.5 2356C2189.19 2325.5 2220 2346.5 2220 2370.5C2220 2405.61 2206.5 2395 2229 2433.5C2251.5 2472 2269 2507 2283 2545.5C2297 2584 2341.32 2732.46 2349.5 2770C2358 2809 2360 2863.5 2356.5 2893C2353 2922.5 2348.5 2956 2318.5 2956C2291.09 2956 2273 2900.5 2265.5 2861.5C2257.92 2822.07 2216.94 2679.32 2207 2643C2195.5 2601 2175.5 2539.17 2165 2505.5C2158.14 2483.5 2159 2481 2145 2492C2125.54 2507.29 2114.5 2530.5 2065 2550C2044.4 2558.11 2020 2562 1993.5 2550C1967 2538 1960 2511.5 1982.5 2492C2005 2472.5 2042.21 2471.68 2080.5 2445Z" fill="black"/>
<path fill-rule="evenodd" clip-rule="evenodd" d="M1844.78 2584.18C1845.07 2588.46 1845.36 2592.58 1845.5 2596.5C1845.5 2596.5 1806.59 2562.87 1776.5 2551.5C1747.78 2540.65 1729.23 2540.23 1699.09 2539.55C1698.4 2539.53 1697.7 2539.52 1697 2539.5C1695.83 2539.47 1694.67 2539.45 1693.53 2539.42C1658.56 2538.61 1636.23 2538.09 1603 2551.5C1576.83 2562.06 1563.65 2572.33 1542.5 2591C1512.37 2617.59 1499.64 2637.9 1481 2673.5C1465.01 2704.03 1458.33 2721.95 1451 2756.5C1445.05 2784.55 1444.23 2802.42 1443.5 2832C1443.39 2836.27 1443.27 2840.33 1443.15 2844.24C1442.35 2869.95 1441.76 2888.87 1448.5 2917.5L1448.67 2918.23C1453.65 2939.36 1457.12 2954.12 1470 2974.5L1470.16 2974.76C1481.3 2992.38 1492.44 3010 1511 3019.5C1525.81 3027.08 1536.76 3026.48 1552.91 3025.61C1553.6 3025.57 1554.29 3025.54 1555 3025.5C1573.54 3024.51 1585.08 3023.05 1601 3013.5C1611.69 3007.08 1617 2999.73 1623.02 2991.41C1626.07 2987.19 1629.3 2982.72 1633.5 2978C1638.86 2971.98 1643.42 2964.65 1647.72 2957.76C1655.23 2945.71 1661.91 2935 1670.5 2935C1675.19 2935 1676.1 2947.06 1676.93 2958.11C1677.11 2960.5 1677.29 2962.84 1677.5 2965C1680.83 2999.23 1677.05 3013.62 1668.81 3045C1668.39 3046.62 1667.95 3048.29 1667.5 3050C1663.97 3063.48 1659.48 3073.27 1654.92 3083.21C1650.77 3092.23 1646.58 3101.37 1643 3113.5C1634.39 3142.7 1634 3144.5 1628 3190C1623.43 3224.65 1624.24 3234.24 1626.27 3258.43C1626.79 3264.61 1627.39 3271.75 1628 3280.5C1629.12 3296.5 1642.72 3322.1 1652.5 3334C1670.18 3355.5 1681.31 3364.02 1705.5 3372C1731 3380.41 1745.59 3379.89 1769 3373.5C1780 3370.49 1802.63 3358.01 1821 3342.5C1843.99 3323.09 1854.9 3306.51 1868.92 3285.23C1873.05 3278.96 1877.45 3272.28 1882.5 3265C1908.42 3227.67 1920.14 3204.57 1938.5 3163C1959.83 3114.71 1976.5 3072.5 1980.5 3034.5C1983.16 3009.2 1984.05 2990.51 1984.94 2971.87C1985.39 2962.51 1985.83 2953.16 1986.5 2943C1987.9 2921.74 1987.34 2903.07 1986.88 2887.61C1986.68 2880.97 1986.5 2874.91 1986.5 2869.5C1986.5 2857 1983.5 2806.5 1969.41 2777C1958.17 2753.46 1952.28 2727.15 1951.93 2725.57C1952.08 2726.08 1953.65 2729 1969.41 2729C1977.86 2729 1982.71 2729.07 1986.84 2729.14C1993.53 2729.24 1998.36 2729.31 2013.5 2729C2029.64 2728.67 2041.43 2726.82 2052.89 2725.03C2058.83 2724.1 2064.68 2723.18 2071 2722.5C2088.74 2720.58 2091.29 2728.28 2098.98 2751.44C2099.31 2752.43 2099.65 2753.45 2100 2754.5C2108 2778.5 2113.5 2805 2117 2827C2117.26 2828.6 2117.5 2830.13 2117.73 2831.58C2120.71 2850.11 2122 2858.13 2122 2891.5C2122 2910.88 2119.54 2927.5 2117.26 2942.85C2115.31 2956.03 2113.5 2968.26 2113.5 2980.5C2113.5 2990.16 2117.25 3024 2142 3024C2154.5 3024 2172.3 3018.5 2185.8 3001.5C2199.3 2984.5 2207.19 2961.46 2209 2944C2209.77 2936.61 2210.59 2929.92 2211.37 2923.52C2214.68 2896.53 2217.37 2874.55 2213 2826.5C2209.5 2788.02 2201.8 2765.6 2187.55 2724.14C2185.5 2718.18 2183.32 2711.84 2181 2705C2162.5 2650.5 2125 2642 2115 2640C2069.13 2630.83 2041.74 2635.67 2009.16 2641.44C2008.12 2641.63 2007.06 2641.81 2006 2642C1972 2648 1960.5 2646.4 1945 2636.5C1922.5 2622.12 1919.5 2582.5 1919.5 2551.5C1919.5 2529.52 1924.53 2520.61 1928.46 2513.66C1931.94 2507.49 1934.55 2502.86 1932 2492C1928 2475 1903.68 2475.57 1890.89 2480C1875 2485.5 1864.54 2499.39 1854.5 2517C1841.68 2539.48 1843.35 2563.59 1844.78 2584.18ZM1542.5 2965C1526 2963 1523.11 2907.65 1521.5 2869.5L1521.48 2869.08C1519.2 2815.08 1517.59 2777.05 1542.5 2729C1562.22 2690.96 1581.28 2667.35 1620 2649C1652.91 2633.4 1677.59 2633.48 1713 2642C1753.86 2651.83 1777 2668 1802 2702.5C1827 2737 1842.5 2758.5 1856.5 2802C1870.5 2845.5 1878.81 2887.13 1882.5 2943C1883.01 2950.69 1883.57 2957.51 1884.08 2963.83C1886.43 2992.53 1887.91 3010.69 1880 3052.5C1872.44 3092.43 1867.54 3105 1845 3150.5C1828.89 3183.03 1816.5 3202.41 1799.16 3229.55C1797.02 3232.9 1794.81 3236.37 1792.5 3240C1780.23 3259.28 1765.21 3280.5 1743.5 3276C1714.2 3269.93 1719.8 3230.87 1725.5 3201.5C1728.77 3184.67 1735.02 3167.82 1741.78 3149.59C1748.48 3131.53 1755.69 3112.11 1761 3090C1763.34 3080.24 1765.7 3071.39 1767.92 3063.05C1775.82 3033.41 1782.03 3010.11 1780 2974.5C1779.75 2970.03 1779.55 2965.75 1779.37 2961.64C1778.14 2934.48 1777.22 2914.18 1761 2889.5C1744.11 2863.81 1728.95 2847.94 1699 2841C1664.8 2833.08 1639.41 2842.95 1612.5 2865.5C1594.98 2880.19 1581.16 2906.67 1569.69 2928.63C1558.91 2949.28 1550.21 2965.94 1542.5 2965Z" fill="black"/>
<path d="M2364.74 504.361C2342.1 502.206 2318.24 509.861 2312.74 522.861C2308.93 531.853 2306.7 540.977 2312.73 549.861C2321.62 562.946 2338 543 2376.5 560C2415 577 2461.97 620.723 2503.24 676.861C2544.5 733 2556.79 741.565 2590 808.5C2619.52 868 2640.13 926 2649.5 965.5C2658.87 1005 2651 982.782 2665.74 1014.36C2669.24 1021.86 2693.06 1038.15 2712.24 1034.36C2732.28 1030.4 2748.74 1016.94 2748.74 995.361C2748.74 948.861 2733.28 909.279 2712.24 857.861C2685.47 792.462 2617.24 703.861 2617.24 703.861C2617.24 703.861 2545.56 607.961 2487.74 566.361C2441.51 533.108 2396.24 507.361 2364.74 504.361Z" fill="black"/>
<path d="M2786 1185.5C2786 1222.23 2769.43 1252 2749 1252C2728.57 1252 2712 1222.23 2712 1185.5C2712 1148.77 2728.57 1119 2749 1119C2769.43 1119 2786 1148.77 2786 1185.5Z" fill="black"/>
<path d="M5883.59 2869V2887C5883.59 2971 5940.59 3019 6033.59 3019C6138.59 3019 6192.59 2962 6192.59 2860V2149C6192.59 1918 6114.59 1846 5841.59 1846H5442.59C5340.59 1846 5289.59 1894 5289.59 1984C5289.59 2074 5340.59 2122 5442.59 2122H5838.59C5865.59 2122 5880.59 2137 5880.59 2170C5880.59 2527 5622.59 2758 5262.59 2758C4887.59 2758 4587.59 2464 4587.59 1834C4587.59 1267 4845.59 928 5265.59 928C5541.59 928 5721.59 1054 5814.59 1306C5847.59 1399 5913.59 1426 5970.59 1426C6072.59 1426 6147.59 1366 6147.59 1279C6147.59 1255 6141.59 1228 6129.59 1195C6030.59 928 5757.59 646 5265.59 646C4551.59 646 4254.59 1216 4254.59 1834C4254.59 2512 4572.59 3037 5262.59 3037C5601.59 3037 5826.59 2818 5907.59 2677C5898.59 2722 5892.59 2761 5889.59 2794L5883.59 2869Z" fill="black"/>
<path d="M8245.06 1918V2866C8245.06 2968 8299.06 3019 8410.06 3019C8524.06 3019 8581.06 2968 8581.06 2866V820C8581.06 718 8524.06 664 8410.06 664C8299.06 664 8245.06 718 8245.06 820V1636H7051.06V820C7051.06 718 6994.06 664 6883.06 664C6772.06 664 6715.06 718 6715.06 820V2866C6715.06 2968 6772.06 3019 6883.06 3019C6994.06 3019 7051.06 2968 7051.06 2866V1918H8245.06Z" fill="black"/>
<path d="M11052.3 1834C11052.3 1198 10764.3 646 10038.3 646C9321.34 646 9015.34 1198 9015.34 1834C9015.34 2458 9312.34 3037 10035.3 3037C10773.3 3037 11052.3 2461 11052.3 1834ZM9348.34 1834C9348.34 1261 9606.34 928 10038.3 928C10476.3 928 10719.3 1261 10719.3 1834C10719.3 2410 10473.3 2755 10035.3 2755C9603.34 2755 9348.34 2410 9348.34 1834Z" fill="black"/>
<path d="M12276.5 1633C11883.5 1540 11775.5 1456 11775.5 1252C11775.5 1033 11925.5 925 12222.5 925C12474.5 925 12618.5 1036 12669.5 1261C12687.5 1348 12747.5 1381 12819.5 1381C12936.5 1381 13005.5 1324 13005.5 1237C13005.5 1222 13002.5 1201 12999.5 1180C12921.5 823 12660.5 646 12219.5 646C11748.5 646 11445.5 883 11445.5 1252C11445.5 1693 11721.5 1828 12165.5 1933L12270.5 1957C12669.5 2050 12750.5 2167 12750.5 2377C12750.5 2614 12546.5 2758 12246.5 2758C11928.5 2758 11754.5 2629 11721.5 2371C11709.5 2272 11643.5 2239 11571.5 2239C11460.5 2239 11379.5 2290 11379.5 2386C11379.5 2395 11382.5 2407 11382.5 2416C11421.5 2749 11709.5 3037 12246.5 3037C12750.5 3037 13080.5 2761 13080.5 2377C13080.5 1975 12903.5 1780 12378.5 1657L12276.5 1633Z" fill="black"/>
<path d="M14379.8 967H15009.8C15111.8 967 15162.8 919 15162.8 823C15162.8 733 15111.8 682 15009.8 682H13419.8C13317.8 682 13266.8 733 13266.8 823C13266.8 919 13317.8 967 13419.8 967H14040.8V2866C14040.8 2968 14094.8 3019 14205.8 3019C14322.8 3019 14379.8 2968 14379.8 2866V967Z" fill="black"/>
</svg>
