<svg width="70" height="70" viewBox="0 0 70 70" fill="none" xmlns="http://www.w3.org/2000/svg">
<path d="M32.0916 34.5053L41.4441 25.1524C41.7016 24.8955 41.8432 24.552 41.8432 24.1858C41.8432 23.8193 41.7016 23.476 41.4441 23.2187L40.6245 22.3996C40.3674 22.1419 40.0237 22 39.6575 22C39.2912 22 38.9479 22.1419 38.6906 22.3996L27.555 33.535C27.2967 33.7931 27.1552 34.138 27.1563 34.5047C27.1552 34.873 27.2965 35.2175 27.555 35.4758L38.6802 46.6004C38.9376 46.8581 39.2808 47 39.6473 47C40.0136 47 40.3569 46.8581 40.6144 46.6004L41.4337 45.7813C41.9668 45.2482 41.9668 44.3803 41.4337 43.8474L32.0916 34.5053Z" fill="white"/>
</svg>
