<svg width="70" height="70" viewBox="0 0 70 70" fill="none" xmlns="http://www.w3.org/2000/svg">
<path d="M41.4457 33.5245L30.3204 22.3994C30.0631 22.1419 29.7196 22 29.3533 22C28.9871 22 28.6436 22.1419 28.3863 22.3994L27.567 23.2185C27.0339 23.7522 27.0339 24.6197 27.567 25.1526L36.9092 34.4948L27.5566 43.8474C27.2993 44.1049 27.1572 44.4482 27.1572 44.8142C27.1572 45.1807 27.2993 45.524 27.5566 45.7817L28.3759 46.6006C28.6334 46.8581 28.9767 47 29.343 47C29.7092 47 30.0527 46.8581 30.31 46.6006L41.4457 35.4653C41.7037 35.207 41.8453 34.8621 41.8445 34.4954C41.8453 34.1273 41.7037 33.7826 41.4457 33.5245Z" fill="white"/>
</svg>
